<svg xmlns="http://www.w3.org/2000/svg" width="94" height="93" fill="none" viewBox="0 0 94 93"><path stroke="url(#paint0_linear)" stroke-miterlimit="10" stroke-width="2" d="M72.1444 52.5021H91.767V1.12048H40.6975V20.6398"/><path stroke="url(#paint1_linear)" stroke-miterlimit="10" stroke-width="2" d="M21.075 40.1592V20.6399H72.1444V72.0216H52.5218"/><path stroke="url(#paint2_linear)" stroke-miterlimit="10" stroke-width="2" d="M52.5218 40.1484H1.45227V91.5301H52.5218V40.1484Z"/><path stroke="url(#paint3_linear)" stroke-width="2" d="M21.381 75.5703C21.381 78.7322 18.8214 81.2932 15.6667 81.2932C12.512 81.2932 9.95239 78.7322 9.95239 75.5703C9.95239 72.4084 12.512 69.8474 15.6667 69.8474C18.8214 69.8474 21.381 72.4084 21.381 75.5703Z"/><path stroke="url(#paint4_linear)" stroke-width="2" d="M21.262 75.0722V56.1102L39.1667 52.6626V71.6246"/><path stroke="url(#paint5_linear)" stroke-width="2" d="M39.2857 71.7108C39.2857 74.8727 36.7262 77.4337 33.5715 77.4337C30.4168 77.4337 27.8572 74.8727 27.8572 71.7108C27.8572 68.5489 30.4168 65.9879 33.5715 65.9879C36.7262 65.9879 39.2857 68.5489 39.2857 71.7108Z"/><defs><linearGradient id="paint0_linear" x1="2.509" x2="91.27" y1="52.502" y2="52.502" gradientUnits="userSpaceOnUse"><stop stop-color="#0074FF"/><stop offset="1" stop-color="#D49CFF"/></linearGradient><linearGradient id="paint1_linear" x1=".396" x2="91.799" y1="72.022" y2="72.022" gradientUnits="userSpaceOnUse"><stop stop-color="#0074FF"/><stop offset="1" stop-color="#D49CFF"/></linearGradient><linearGradient id="paint2_linear" x1="1.452" x2="91.799" y1="91.53" y2="91.53" gradientUnits="userSpaceOnUse"><stop stop-color="#0074FF"/><stop offset="1" stop-color="#D49CFF"/></linearGradient><linearGradient id="paint3_linear" x1="-8.673" x2="119.738" y1="82.293" y2="82.293" gradientUnits="userSpaceOnUse"><stop stop-color="#0074FF"/><stop offset="1" stop-color="#D49CFF"/></linearGradient><linearGradient id="paint4_linear" x1="-7.223" x2="118.11" y1="71.625" y2="71.625" gradientUnits="userSpaceOnUse"><stop stop-color="#0074FF"/><stop offset="1" stop-color="#D49CFF"/></linearGradient><linearGradient id="paint5_linear" x1="-9.232" x2="119.179" y1="78.434" y2="78.434" gradientUnits="userSpaceOnUse"><stop stop-color="#0074FF"/><stop offset="1" stop-color="#D49CFF"/></linearGradient></defs></svg>